<?xml version="1.0" encoding="UTF-8" standalone="no"?>
<svg
   version="1.1"
   id="Layer_1"
   x="0px"
   y="0px"
   width="100%"
   viewBox="0 0 496 496"
   enable-background="new 0 0 496 496"
   xml:space="preserve"
   sodipodi:docname="faceOutline2.svg"
   inkscape:version="1.3.2 (091e20e, 2023-11-25, custom)"
   inkscape:export-filename="..\hana-website\public\face.svg"
   inkscape:export-xdpi="96"
   inkscape:export-ydpi="96"
   xmlns:inkscape="http://www.inkscape.org/namespaces/inkscape"
   xmlns:sodipodi="http://sodipodi.sourceforge.net/DTD/sodipodi-0.dtd"
   xmlns="http://www.w3.org/2000/svg"
   xmlns:svg="http://www.w3.org/2000/svg"><defs
   id="defs4" /><sodipodi:namedview
   id="namedview4"
   pagecolor="#ffffff"
   bordercolor="#000000"
   borderopacity="0.25"
   inkscape:showpageshadow="2"
   inkscape:pageopacity="0.0"
   inkscape:pagecheckerboard="true"
   inkscape:deskcolor="#d1d1d1"
   showguides="false"
   inkscape:zoom="0.81249999"
   inkscape:cx="275.69231"
   inkscape:cy="251.69231"
   inkscape:window-width="1920"
   inkscape:window-height="1137"
   inkscape:window-x="1912"
   inkscape:window-y="-8"
   inkscape:window-maximized="1"
   inkscape:current-layer="Layer_1" />




<path
   fill="#000000"
   opacity="1"
   stroke="none"
   d="m 149.63565,486.04412 c -15.86787,-1.17491 -14.66126,-7.99512 -12.03287,-17.0243 l 1.8368,-2.92743 c -4.955,1.60716 -12.92163,-5.51242 -27.33521,-3.59404 -6.25056,0.83196 -19.065848,-9.38303 -24.938971,-9.23856 -13.332006,0.32805 -21.390059,3.06388 -31.105985,-6.08182 -4.702149,-4.42615 -9.686194,-15.27563 -11.219191,-14.86576 -1.819954,0.4864 -2.565133,2.11284 -5.609503,3.24731 -9.162816,3.41419 -17.642471,-1.16749 -21.529015,-9.74596 -0.986168,-2.17666 -4.021493,-6.00161 -2.326064,-7.62042 14.146768,-13.50766 11.940988,-36.93172 7.053165,-52.93515 C 14.66837,339.84913 8.4179487,279.19705 9.2653939,252.98962 11.769541,175.54967 35.592241,106.60282 95.142126,53.757206 126.88171,25.590981 164.70102,10.769227 207.07258,7.1609948 220.80072,5.991942 234.97317,3.272835 247.89941,7.7044036 c 17.96756,6.1598934 35.28915,-1.4177973 53.14032,0.8361533 31.20483,3.9400081 57.68401,16.1874681 80.49759,37.1112231 8.56974,7.859844 17.00201,15.716713 26.52559,22.527765 15.90592,11.375579 26.59518,27.34418 34.65049,44.810435 2.45164,5.31581 1.92042,11.81464 5.78447,17.21722 2.84401,3.97642 7.67326,4.31163 10.44456,8.02901 29.14542,39.09527 39.58613,81.41742 22.42847,128.53547 -2.72055,7.4712 -7.38021,14.07647 -14.1663,17.95636 -5.93381,3.39267 -7.92425,8.00707 -9.22172,14.05296 -2.31915,10.80759 -6.06777,21.15598 -11.26186,30.98174 -3.77921,7.14918 -5.84599,44.66155 -7.80817,52.50594 -2.51678,10.06178 -0.56539,31.94113 7.99886,38.36869 6.10673,4.58315 5.38189,7.30435 -1.86107,9.93142 -1.09026,0.3956 -2.67886,0.53172 -3.16149,1.32226 -8.34775,13.67259 -17.53165,11.95155 -27.23469,9.98025 -5.60306,-1.13829 -13.64776,8.37783 -19.74336,11.84739 -9.94935,5.51342 -10.71562,0.73747 -22.90724,6.38204 -0.98224,0.45495 1.33544,5.94839 4.55914,12.15284 3.25776,6.85388 0.54659,12.61066 -6.7739,14.66551 -4.52043,1.26892 -6.29057,0.92117 -11.01407,0.92901 -64.45426,0.10614 -128.90869,0.10989 -193.3629,10e-4 -5.0276,-0.009 -10.05344,-1.03094 -15.77639,-1.80662 M 387.3793,276.80922 c -40.68168,6.57375 -33.77927,-0.95139 -34.29151,-3.22266 -1.60282,-7.10633 3.54291,-14.30709 -17.81866,-3.69168 -6.21125,3.08658 -12.54859,5.98691 -19.36096,6.55736 -18.79477,1.57389 -20.94427,1.55784 -20.38803,-2.7833 0.74709,-5.83036 -1.79774,-5.85885 -11.84251,-1.36344 -13.04352,5.83756 -26.50036,8.02314 -40.71037,7.99889 -14.25515,-0.0257 -12.18682,-0.61641 -11.86357,-4.67256 0.47507,-5.95941 1.77422,-6.16197 -9.42728,-1.40235 -12.28853,5.22151 -31.7772,10.41557 -45.02339,11.91868 -7.44367,0.8447 -8.3502,0.40442 -9.06586,4.54644 -3.1539,18.25403 -5.77926,33.06656 -10.25407,50.23035 -13.74251,52.71103 103.48804,81.12668 181.08907,63.28108 25.96298,-5.97056 50.86474,-14.91563 72.12353,-31.8752 7.47099,-5.96004 11.83511,-17.21961 11.84055,-26.95322 0.002,-7.27129 -1.4156,-14.11601 -3.5237,-21.01073 -2.15401,-7.045 -5.67937,-14.15374 -3.52645,-21.71754 0.84757,-2.97773 1.28337,-10.92122 -0.45854,-11.66059 -0.27236,-0.1155 -2.78429,0.66355 -6.07768,1.0378 -6.06433,0.68928 -4.41159,0.6692 -0.93158,-12.29462 2.02912,-7.55888 1.42466,-8.40974 -0.29658,-15.51777 -7.35799,11.48614 -7.0934,8.81807 -20.19231,12.59506 M 196.46505,435.2812 c 19.96085,2.63159 39.42925,7.81271 59.06009,12.09839 0.19961,-0.95388 0.41419,-1.39392 0.29867,-1.51261 -8.2993,-8.52823 -17.15483,-16.58724 -24.77096,-25.68422 -5.52409,-6.59827 -12.76252,-10.11881 -20.11045,-9.93894 -9.41611,0.23053 -21.70546,-3.80593 -26.44402,10.22514 -0.87954,2.60438 -4.11186,3.18451 -6.88684,3.40542 -10.29168,0.8193 -13.27426,8.08312 -15.6785,17.35658 5.45623,-0.71684 8.72343,-4.58246 13.32529,-4.51675 2.56649,0.0361 4.84658,0.21625 5.89339,2.88826 0.81939,2.09176 0.61254,4.40653 -1.17274,5.76175 -4.93691,3.74791 -9.65006,9.03763 -15.25193,10.3812 -9.2671,2.22265 -11.36881,8.95883 -14.4646,17.62791 69.71421,3.95219 139.1362,3.61596 210.22618,1.62858 1.0098,-7.75961 -13.0691,-35.96838 -21.72244,-37.52132 -6.12664,18.70254 -49.06858,38.50091 -66.97962,28.04111 -8.27482,-4.83243 -18.41591,-6.75486 -27.9294,-9.11637 -15.87562,-3.9409 -31.92612,-7.17729 -47.90453,-10.70334 -2.66764,-0.5887 -5.50185,-1.1515 -6.019,-4.40701 -0.58187,-3.66299 1.42045,-5.54426 6.53136,-6.01378 m 96.57363,4.37137 c 8.13759,-12.52024 3.92628,-21.69544 -10.84781,-22.38162 -12.61071,-0.58563 -25.27026,-0.12113 -38.47217,-0.12113 12.10818,12.96527 25.71268,24.39055 40.07296,36.13052 3.23026,-4.7869 5.86874,-8.697 9.24702,-13.62782 m 37.79022,-5.85694 c 5.78454,-3.4238 5.12012,-8.83411 2.34694,-13.00621 -5.77332,-8.68589 -13.86413,-5.02546 -22.43398,-2.67034 6.50802,15.23487 -8.59178,23.08649 -12.16401,35.82387 13.45688,-2.80421 22.17242,-11.317 32.25105,-20.14732"
   id="path1-4"
   sodipodi:nodetypes="cccsssscscsssssssssscssssssscscssscsccssssssssssssssssssscccccsssscsssscccssssccsccccsccc"
   style="fill:#1f3547;fill-opacity:1;stroke-width:1.79048" /><path
   fill="#000000"
   opacity="1"
   stroke="none"
   d="m 227.65299,337.31816 c -18.0554,-8.2498 -19.56757,-31.56314 -3.29719,-41.16916 9.56271,-5.64581 22.9415,-4.18949 30.80612,3.35319 7.9234,7.59912 9.65044,21.27802 3.80611,30.1468 -5.48322,8.32074 -15.86677,10.99212 -31.31504,7.66917 z"
   id="path2-7"
   style="fill:#1f3547;fill-opacity:1;stroke-width:1.65781" /><path
   fill="#000000"
   opacity="1"
   stroke="none"
   d="m 379.4894,305.62504 c 2.26965,5.41174 3.51182,10.33806 2.57074,15.53053 -2.39594,13.21976 -11.64718,19.25599 -26.77186,17.41844 -11.38474,-1.38315 -20.14063,-11.74767 -18.32875,-22.77039 1.5448,-9.39853 3.77113,-19.09767 16.50546,-22.37819 10.95419,-2.82192 19.3492,1.26956 26.02441,12.19961 z"
   id="path3-7"
   style="fill:#1f3547;fill-opacity:1;stroke-width:1.65781" /><path
   fill="#000000"
   opacity="1"
   stroke="none"
   d="m 322.35241,362.92163 c -3.89353,4.4375 -8.26329,5.81788 -13.45359,4.35062 -6.17064,-1.74451 -12.13326,-1.43522 -18.2996,0.59349 -5.54568,1.82456 -10.99437,0.5494 -15.677,-3.15363 -2.13472,-1.68821 -3.85231,-3.8158 -2.01491,-6.48815 1.62852,-2.36842 4.09228,-1.89837 6.10676,-0.31153 4.34824,3.42469 8.91302,3.12209 13.74026,1.28756 4.68209,-1.77928 9.48084,-1.82458 14.29249,-0.48229 3.4429,0.96054 6.55266,0.88648 9.9776,-0.89017 4.46901,-2.31803 6.58855,-0.33837 5.32799,5.09419 z"
   id="path4-0"
   style="fill:#1f3547;fill-opacity:1;stroke-width:1.38984" /></svg>
