<?xml version="1.0" encoding="UTF-8" standalone="no"?>
<!-- Created with Inkscape (http://www.inkscape.org/) -->

<svg
   width="170.20969mm"
   height="247.61578mm"
   viewBox="0 0 170.20969 247.61578"
   version="1.1"
   id="svg1"
   xml:space="preserve"
   sodipodi:docname="wizard.svg"
   xmlns:inkscape="http://www.inkscape.org/namespaces/inkscape"
   xmlns:sodipodi="http://sodipodi.sourceforge.net/DTD/sodipodi-0.dtd"
   xmlns="http://www.w3.org/2000/svg"
   xmlns:svg="http://www.w3.org/2000/svg"><sodipodi:namedview
     id="namedview1"
     pagecolor="#ffffff"
     bordercolor="#000000"
     borderopacity="0.25"
     inkscape:showpageshadow="2"
     inkscape:pageopacity="0.0"
     inkscape:pagecheckerboard="0"
     inkscape:deskcolor="#d1d1d1"
     inkscape:document-units="mm" /><defs
     id="defs1" /><path
     id="rect6"
     style="display:inline;fill:#515153;fill-opacity:1;stroke-width:0.123;stroke-linecap:square;stroke-linejoin:round"
     d="m 69.880496,227.34446 20.719702,0.1279 v 20.0802 H 52.230387 Z" /><path
     id="rect6-4"
     style="display:inline;fill:#515153;fill-opacity:1;stroke-width:0.123;stroke-linecap:square;stroke-linejoin:round"
     d="m 123.53088,227.4077 -20.7197,0.1279 v 20.0802 h 38.36981 z" /><rect
     style="display:inline;fill:#f9d0a6;fill-opacity:1;stroke:none;stroke-width:0.142424;stroke-linecap:square;stroke-linejoin:round"
     id="rect3"
     width="12.613392"
     height="25.44413"
     x="114.05901"
     y="-33.677128"
     ry="8.2560635"
     transform="matrix(-0.05379475,0.99855201,-0.99950814,-0.03136042,0,0)" /><path
     style="display:inline;fill:#5b367c;fill-opacity:1;stroke:none;stroke-width:0.1;stroke-linecap:square;stroke-linejoin:round"
     d="m 74.484867,89.213183 c 0,0 -10.763447,-1.83659 -17.775887,4.11971 -7.012439,5.9563 -10.552207,20.282987 -13.815249,22.867047 -2.723277,2.15661 -21.870786,-15.22002 -24.172974,-1.91849 -2.302189,13.30153 -4.860176,49.62494 -2.046391,54.99671 2.813786,5.37177 28.414571,-20.40212 34.91652,-26.73096 4.816235,-4.68801 3.415191,-6.39512 8.569256,-11.63884 2.874572,-2.92457 0.511596,34.53282 -0.767398,40.41619 -1.278993,5.88337 -12.789934,39.90459 -14.836322,46.81116 -2.046391,6.90656 -5.115973,18.1617 2.557986,18.4175 7.673962,0.2558 120.736972,2.30219 122.527562,0.5116 1.7906,-1.79059 -0.51159,-7.41816 -8.95295,-7.92976 -8.44135,-0.5116 -9.46455,0.5116 -13.81313,-2.55799 -4.34857,-3.06958 -19.47917,-18.03279 -19.63443,-30.44004 -0.1627,-13.00184 4.96179,-14.73866 7.62742,-22.24163 3.08819,-8.69238 5.86785,-16.89556 8.42583,-26.36011 2.55799,-9.46455 3.06959,-8.18556 1.279,-13.55733 -1.79059,-5.37178 -11.72447,-31.83505 -16.62692,-38.753497 -12.80884,-18.07613 -53.461923,-6.01127 -53.461923,-6.01127 z"
     id="path1" /><g
     id="g11"
     transform="translate(-20.019987,-24.873027)"
     style="display:inline"><path
       d="M 139.45341,92.342684 H 91.911091 c -0.04098,0.583119 -0.08175,1.166522 -0.07855,1.761649 l 0.06873,12.818857 c 0.06827,12.69517 10.343399,22.99279 23.038389,23.08851 l 1.90841,0.0145 c 12.69499,0.0957 22.86016,-10.04763 22.79189,-22.7428 l -0.0687,-12.818852 c -0.004,-0.716175 -0.0504,-1.422322 -0.11782,-2.121834 z"
       style="display:inline;fill:#f9d0a6;stroke-width:0.414037;stroke-linecap:square;stroke-linejoin:round"
       id="path7" /><path
       style="display:inline;fill:none;fill-opacity:1;stroke:#000000;stroke-width:1.3419;stroke-linecap:round;stroke-linejoin:round;stroke-dasharray:none;stroke-opacity:1"
       id="path6"
       d="m 120.44432,119.90007 a 5.7038631,5.7038631 0 0 1 -4.68145,2.53495 5.7038631,5.7038631 0 0 1 -4.73489,-2.43367" /><g
       id="g10"
       transform="translate(-0.60279626)"><circle
         style="fill:#000000;fill-opacity:1;stroke:none;stroke-width:0.965517;stroke-linecap:round;stroke-linejoin:round;stroke-dasharray:none;stroke-opacity:1"
         id="path9"
         cx="103.77274"
         cy="104.23795"
         r="3.5811813" /><rect
         style="font-variation-settings:normal;opacity:1;vector-effect:none;fill:#ffffff;fill-opacity:1;stroke:none;stroke-width:0.931034;stroke-linecap:round;stroke-linejoin:round;stroke-miterlimit:4;stroke-dasharray:none;stroke-dashoffset:0;stroke-opacity:1;-inkscape-stroke:none"
         id="rect9"
         width="11.383041"
         height="3.0695841"
         x="98.081223"
         y="95.796608" /><circle
         style="fill:#000000;fill-opacity:1;stroke:none;stroke-width:0.965517;stroke-linecap:round;stroke-linejoin:round;stroke-dasharray:none;stroke-opacity:1"
         id="circle9"
         cx="129.2774"
         cy="104.23795"
         r="3.5811813" /><rect
         style="font-variation-settings:normal;opacity:1;vector-effect:none;fill:#ffffff;fill-opacity:1;stroke:none;stroke-width:0.931034;stroke-linecap:round;stroke-linejoin:round;stroke-miterlimit:4;stroke-dasharray:none;stroke-dashoffset:0;stroke-opacity:1;-inkscape-stroke:none"
         id="rect10"
         width="11.383041"
         height="3.0695841"
         x="123.58591"
         y="95.796608" /></g><circle
       style="font-variation-settings:normal;opacity:1;fill:#e7c29c;fill-opacity:1;stroke:none;stroke-width:4;stroke-linecap:round;stroke-linejoin:round;stroke-miterlimit:4;stroke-dasharray:none;stroke-dashoffset:0;stroke-opacity:1"
       id="path14"
       cx="115.86405"
       cy="111.01661"
       r="3.4532821" /><path
       d="m 92.048752,109.83943 c -4.462036,10.93883 -7.586308,13.14139 -7.619427,20.80644 -1.23e-4,17.29026 14.0164,31.30702 31.306665,31.3072 17.29047,1.2e-4 31.30731,-14.01673 31.30719,-31.3072 -0.004,-7.61872 -2.73904,-9.32357 -7.49749,-20.73599 -1.18124,6.09727 -4.40739,12.37768 -9.70577,12.60657 -3.97065,0.17154 -3.56061,-6.60572 -8.06125,-8.78496 -2.09847,1.21536 -3.50851,1.70962 -6.10126,1.73419 -2.60041,-0.0241 -4.28043,-0.52479 -5.84668,-1.74806 -4.37971,2.14927 -3.5834,8.503 -7.31856,8.48554 -5.398961,-0.0252 -9.177803,-6.43976 -10.463418,-12.36373 z m 19.856828,7.20075 h 7.52924 c 2.19545,0 4.02896,2.29584 4.02896,4.49128 0,2.19545 -1.76747,3.96291 -3.96291,3.96291 h -7.52924 c -2.19544,0 -3.96291,-1.76746 -3.96291,-3.96291 0,-2.19544 1.70142,-4.49128 3.89686,-4.49128 z"
       style="display:inline;opacity:1;vector-effect:none;fill:#ffffff;stroke-width:0.92641;stroke-linecap:round;stroke-linejoin:round"
       id="path19" /></g><g
     id="g3"
     style="display:inline"
     transform="translate(-20.160642,-24.873027)"><circle
       style="display:inline;fill:#f8d521;fill-opacity:1;stroke:none;stroke-width:0.0233333;stroke-linecap:square;stroke-linejoin:round"
       id="path3"
       cx="74.181618"
       cy="135.31749"
       r="1.7905908" /><circle
       style="display:inline;fill:#f8d521;fill-opacity:1;stroke:none;stroke-width:0.0233333;stroke-linecap:square;stroke-linejoin:round"
       id="path3-1"
       cx="151.1344"
       cy="156.84729"
       r="1.7905908" /><circle
       style="display:inline;fill:#f8d521;fill-opacity:1;stroke:none;stroke-width:0.0233333;stroke-linecap:square;stroke-linejoin:round"
       id="path3-3"
       cx="141.75517"
       cy="170.59476"
       r="1.7905908" /><circle
       style="display:inline;fill:#f8d521;fill-opacity:1;stroke:none;stroke-width:0.0233333;stroke-linecap:square;stroke-linejoin:round"
       id="path3-34"
       cx="152.86768"
       cy="189.11559"
       r="1.7905908" /><circle
       style="display:inline;fill:#f8d521;fill-opacity:1;stroke:none;stroke-width:0.0233333;stroke-linecap:square;stroke-linejoin:round"
       id="path3-8"
       cx="127.46767"
       cy="202.87392"
       r="1.7905908" /><circle
       style="display:inline;fill:#f8d521;fill-opacity:1;stroke:none;stroke-width:0.0233333;stroke-linecap:square;stroke-linejoin:round"
       id="path3-89"
       cx="113.18018"
       cy="188.85101"
       r="1.7905908" /><circle
       style="display:inline;fill:#f8d521;fill-opacity:1;stroke:none;stroke-width:0.0233333;stroke-linecap:square;stroke-linejoin:round"
       id="path3-6"
       cx="122.17601"
       cy="172.71143"
       r="1.7905908" /><circle
       style="display:inline;fill:#f8d521;fill-opacity:1;stroke:none;stroke-width:0.0233333;stroke-linecap:square;stroke-linejoin:round"
       id="path3-4"
       cx="95.717674"
       cy="172.97601"
       r="1.7905908" /><circle
       style="display:inline;fill:#f8d521;fill-opacity:1;stroke:none;stroke-width:0.0233333;stroke-linecap:square;stroke-linejoin:round"
       id="path3-67"
       cx="92.013504"
       cy="194.67184"
       r="1.7905908" /><circle
       style="display:inline;fill:#f8d521;fill-opacity:1;stroke:none;stroke-width:0.0233333;stroke-linecap:square;stroke-linejoin:round"
       id="path3-11"
       cx="107.35934"
       cy="218.21976"
       r="1.7905908" /><circle
       style="display:inline;fill:#f8d521;fill-opacity:1;stroke:none;stroke-width:0.0233333;stroke-linecap:square;stroke-linejoin:round"
       id="path3-5"
       cx="135.66975"
       cy="229.86142"
       r="1.7905908" /><circle
       style="display:inline;fill:#f8d521;fill-opacity:1;stroke:none;stroke-width:0.0233333;stroke-linecap:square;stroke-linejoin:round"
       id="path3-35"
       cx="147.84059"
       cy="248.64684"
       r="1.7905908" /><circle
       style="display:inline;fill:#f8d521;fill-opacity:1;stroke:none;stroke-width:0.0233333;stroke-linecap:square;stroke-linejoin:round"
       id="path3-7"
       cx="167.68434"
       cy="255.52602"
       r="1.7905908" /><circle
       style="display:inline;fill:#f8d521;fill-opacity:1;stroke:none;stroke-width:0.0233333;stroke-linecap:square;stroke-linejoin:round"
       id="path3-46"
       cx="112.91559"
       cy="247.58852"
       r="1.7905908" /><circle
       style="display:inline;fill:#f8d521;fill-opacity:1;stroke:none;stroke-width:0.0233333;stroke-linecap:square;stroke-linejoin:round"
       id="path3-9"
       cx="92.542671"
       cy="241.76767"
       r="1.7905908" /><circle
       style="display:inline;fill:#f8d521;fill-opacity:1;stroke:none;stroke-width:0.0233333;stroke-linecap:square;stroke-linejoin:round"
       id="path3-49"
       cx="76.138504"
       cy="251.02809"
       r="1.7905908" /><circle
       style="display:inline;fill:#f8d521;fill-opacity:1;stroke:none;stroke-width:0.0233333;stroke-linecap:square;stroke-linejoin:round"
       id="path3-10"
       cx="86.45726"
       cy="223.24684"
       r="1.7905908" /><circle
       style="display:inline;fill:#f8d521;fill-opacity:1;stroke:none;stroke-width:0.0233333;stroke-linecap:square;stroke-linejoin:round"
       id="path3-60"
       cx="46.769756"
       cy="182.23642"
       r="1.7905908" /><circle
       style="display:inline;fill:#f8d521;fill-opacity:1;stroke:none;stroke-width:0.0233333;stroke-linecap:square;stroke-linejoin:round"
       id="path3-93"
       cx="43.06559"
       cy="166.89059"
       r="1.7905908" /><circle
       style="display:inline;fill:#f8d521;fill-opacity:1;stroke:none;stroke-width:0.0233333;stroke-linecap:square;stroke-linejoin:round"
       id="path3-95"
       cx="55.765591"
       cy="165.30309"
       r="1.7905908" /><circle
       style="display:inline;fill:#f8d521;fill-opacity:1;stroke:none;stroke-width:0.0233333;stroke-linecap:square;stroke-linejoin:round"
       id="path3-82"
       cx="45.711422"
       cy="145.19476"
       r="1.7905908" /><circle
       style="display:inline;fill:#f8d521;fill-opacity:1;stroke:none;stroke-width:0.0233333;stroke-linecap:square;stroke-linejoin:round"
       id="path3-45"
       cx="59.734341"
       cy="148.36975"
       r="1.7905908" /><circle
       style="display:inline;fill:#f8d521;fill-opacity:1;stroke:none;stroke-width:0.0233333;stroke-linecap:square;stroke-linejoin:round"
       id="path3-83"
       cx="69.523926"
       cy="159.48225"
       r="1.7905908" /></g><rect
     style="display:inline;fill:#6c593f;fill-opacity:1;stroke:none;stroke-width:0.1;stroke-linecap:square;stroke-linejoin:round"
     id="rect2"
     width="7.929759"
     height="182.64026"
     x="7.209815"
     y="60.052135" /><ellipse
     style="display:inline;fill:#f99f1b;fill-opacity:1;stroke:none;stroke-width:0.123;stroke-linecap:square;stroke-linejoin:round;stroke-dasharray:none"
     id="path2"
     cx="11.174695"
     cy="49.692287"
     rx="11.174695"
     ry="10.859916" /><path
     d="M 95.637998,0 72.074165,64.07464 H 58.107237 v 3.39489 h 12.318562 50.423831 12.31857 v -3.39489 h -13.96693 z"
     style="display:inline;fill:#7f3e98;fill-opacity:1;stroke-width:0.132549;stroke-linecap:square;stroke-linejoin:round"
     id="path5" /></svg>
