<?xml version="1.0" encoding="UTF-8" standalone="no"?>
<!-- Created with Inkscape (http://www.inkscape.org/) -->

<svg
   width="68.073639mm"
   height="78.192886mm"
   viewBox="0 0 68.073639 78.192886"
   version="1.1"
   id="svg1"
   xml:space="preserve"
   xmlns="http://www.w3.org/2000/svg"
   xmlns:svg="http://www.w3.org/2000/svg"><defs
     id="defs1" /><g
     id="layer1"
     transform="translate(-19.085259,-209.80697)"><g
       id="path16"
       transform="matrix(0.97663254,0,0,0.97663254,1.2413282,5.8162412)"><path
         d="m 29.260024,208.87154 c -6.044631,0 -10.98915,4.9424 -10.98915,10.98703 v 53.45201 c 0,6.04464 4.944522,10.98862 10.98915,10.98862 h 19.313734 c 0.596573,0.84806 1.265541,1.62709 2.062189,2.23664 2.087103,1.59698 4.668972,2.39946 7.330873,2.39945 2.661896,10e-6 5.242783,-0.80293 7.329281,-2.39945 0.796297,-0.60928 1.465412,-1.38864 2.06219,-2.23664 h 3.235128 c 1.863283,1.10901 3.966188,1.78169 6.186567,1.78168 2.661899,1e-5 5.242747,-0.80226 7.329283,-2.39891 2.156182,-1.64993 3.864211,-4.32619 3.864018,-7.55359 v -0.55889 -19.07565 c 0,-2.04459 -1.045412,-3.71931 -2.439205,-5.01202 v -31.62325 c 0,-6.04463 -4.941868,-10.98702 -10.986499,-10.98703 z"
         style="fill:#ffffff;fill-opacity:1;stroke-width:1.02612;stroke-linecap:square;stroke-linejoin:round;paint-order:markers stroke fill"
         id="path22" /></g><path
       d="m 29.866911,212.27748 c -4.609428,0 -8.320423,3.711 -8.320423,8.32042 v 52.09243 c 0,4.60943 3.710995,8.32042 8.320423,8.32042 h 20.112467 c 0.514728,1.07172 1.283356,1.99151 2.170927,2.67064 1.589459,1.21619 3.573383,1.84796 5.693193,1.84795 2.119814,1e-5 4.102184,-0.63175 5.691642,-1.84795 0.887597,-0.67916 1.656717,-1.59888 2.171444,-2.67064 h 4.936132 c 1.562623,1.14061 3.483438,1.73738 5.535063,1.73737 2.119905,1e-5 4.102152,-0.63166 5.691642,-1.84795 1.589489,-1.2163 2.829938,-3.18601 2.829802,-5.46479 v -0.54467 -18.59008 c 0,-1.74005 -0.964632,-3.2201 -2.377633,-3.97391 V 220.5979 c 0,-4.60942 -3.710995,-8.32042 -8.320422,-8.32042 z m 7.756116,18.47123 h 28.622025 c 1.390872,0 2.510441,1.11957 2.510441,2.51044 0,1.39087 -1.119569,2.51095 -2.510441,2.51095 H 37.623027 c -1.390872,0 -2.510442,-1.12008 -2.510442,-2.51095 0,-1.39087 1.11957,-2.51044 2.510442,-2.51044 z m 0.132291,13.61415 H 66.11276 c 1.464161,0 2.642733,1.17909 2.642733,2.64325 0,1.46416 -1.178572,2.64273 -2.642733,2.64273 H 37.755318 c -1.46416,0 -2.642733,-1.17857 -2.642733,-2.64273 0,-1.46416 1.178573,-2.64325 2.642733,-2.64325 z m 42.298194,10.80451 c 0.703303,-0.0718 1.277958,0.50511 1.277958,1.13275 v 18.59059 0.54467 c 1.3e-4,2.17825 -2.307493,3.94397 -5.154208,3.94395 -2.846704,2e-5 -5.154844,-1.7657 -5.154724,-3.94395 4e-5,-2.17816 2.30814,-3.94396 5.154724,-3.94394 0.536456,10e-4 1.069127,0.0667 1.579232,0.19379 v -8.59586 c 0,-0.47 -0.431475,-0.91353 -0.956531,-0.84853 l -12.833842,1.58802 c -0.525035,0.065 -0.957047,0.37854 -0.957047,0.84852 0,5.57138 0.01291,7.97112 -0.01189,13.54026 -2.5e-5,1.09168 -0.580037,2.07901 -1.516703,2.79311 -0.932215,0.71071 -2.217595,1.15085 -3.637504,1.15084 -1.4199,1e-5 -2.705287,-0.44013 -3.637504,-1.15084 -0.93667,-0.7141 -1.516681,-1.70143 -1.516703,-2.79311 4.4e-5,-2.17815 2.307629,-3.94394 5.154207,-3.94394 0.540692,10e-4 1.077889,0.0674 1.591634,0.19637 v -16.1954 c 0,-0.62764 0.574655,-1.06094 1.277958,-1.13274 z m -42.03361,1.9544 h 10.283093 c 1.610738,0 2.907316,1.29658 2.907316,2.90732 0,1.61074 -1.296578,2.90732 -2.907316,2.90732 H 38.019902 c -1.610739,0 -2.907317,-1.29658 -2.907317,-2.90732 0,-1.61074 1.296578,-2.90732 2.907317,-2.90732 z"
       style="fill:#676395;fill-opacity:1;stroke-width:3.175;stroke-linecap:square;stroke-linejoin:round;paint-order:markers stroke fill"
       id="path20" /></g></svg>
