<?xml version="1.0" encoding="UTF-8" standalone="no"?>
<svg
   width="646.61182"
   height="732.86694"
   viewBox="0 0 646.61181 732.86694"
   fill="none"
   version="1.1"
   id="svg24"
   sodipodi:docname="logo.svg"
   xml:space="preserve"
   inkscape:export-filename="logo.svg"
   inkscape:export-xdpi="96"
   inkscape:export-ydpi="96"
   inkscape:version="1.3.2 (091e20e, 2023-11-25, custom)"
   xmlns:inkscape="http://www.inkscape.org/namespaces/inkscape"
   xmlns:sodipodi="http://sodipodi.sourceforge.net/DTD/sodipodi-0.dtd"
   xmlns="http://www.w3.org/2000/svg"
   xmlns:svg="http://www.w3.org/2000/svg"><sodipodi:namedview
     id="namedview24"
     pagecolor="#ffffff"
     bordercolor="#000000"
     borderopacity="0.25"
     inkscape:showpageshadow="2"
     inkscape:pageopacity="0.0"
     inkscape:pagecheckerboard="true"
     inkscape:deskcolor="#d1d1d1"
     inkscape:zoom="0.8010989"
     inkscape:cx="133.56653"
     inkscape:cy="482.46228"
     inkscape:window-width="1920"
     inkscape:window-height="1137"
     inkscape:window-x="1912"
     inkscape:window-y="-8"
     inkscape:window-maximized="1"
     inkscape:current-layer="svg24" /><path
     id="path101"
     style="display:inline;fill:none;fill-opacity:1;fill-rule:nonzero;stroke:#ffffff;stroke-width:150;stroke-linecap:round;stroke-linejoin:round;stroke-dasharray:none;stroke-opacity:1;filter:url(#filter0_dddddi_18_31-1)"
     d="m 163.39532,512.81165 c -32.458,-36.973 -52.167,-85.475 -52.167,-138.545 0,-115.967 94.028,-209.995 209.995,-209.995 13.812,0 27.359,1.328 40.427,3.878 m 142.37,102.634 c 17.318,30.545 27.199,65.872 27.199,103.483 0,61.411 -26.349,116.605 -68.316,155.013 m -333.613,-93.921 c 0,0 27.783,-33.839 54.823,-33.839 21.887,0 37.93,15.458 37.93,15.458 l -8.447,21.781 -28.102,-11.262 -21.993,10.89 v -8.128 z m 235.76,-81.756 -35.221,98.808 c -3.134,11.634 -38.939,18.7 -49.776,16.522 23.48,-25.978 60.029,-74.479 24.809,-100.19 0.265,-0.691 0.796,-1.275 1.434,-1.594 l 54.292,-17.159 c 2.496,-1.328 5.312,0.956 4.462,3.613 z m 34.689,140.51 c 4.888,-3.028 11.05,1.009 10.253,6.693 l -2.019,13.919 c 0,3.4 2.763,6.162 6.163,6.162 h 24.224 c 1.912,0 3.187,1.859 2.603,3.665 -8.394,25.075 -10.094,50.096 -7.756,75.17 0.159,1.646 -1.116,3.028 -2.763,3.028 h -29.483 c -1.275,0 -2.39,-0.85 -2.709,-2.125 -8.075,-34.212 -7.703,-69.167 0.265,-104.759 0.107,-0.744 0.585,-1.381 1.222,-1.753 z m -93.443,-18.274 c 7.437,-0.372 14.343,-3.719 18.487,-6.269 1.328,-0.797 2.921,0.531 2.39,1.966 l -16.733,48.82 c -0.319,3.4 2.178,6.428 5.577,6.693 l 32.618,-6.799 c 1.912,0.159 3.028,2.124 2.231,3.878 -10.678,24.171 -22.312,55.991 -22.312,81.172 0,1.646 -1.381,2.921 -3.028,2.762 l -29.43,-1.434 c -1.275,-0.107 -2.284,-1.116 -2.497,-2.338 -5.312,-37.611 -1.434,-87.493 11.209,-126.805 0.319,-0.69 0.85,-1.274 1.488,-1.646 z m -47.492,59.285 c -7.544,9.456 -20.399,21.09 -30.44,26.19 -0.531,0.637 -0.85,1.434 -0.85,2.284 -0.106,21.94 13.759,30.918 26.296,48.448 0.85,1.169 2.338,1.7 3.772,1.328 l 16.468,-3.665 c 1.913,-0.478 3.028,-2.391 2.55,-4.303 -2.975,-11.369 -12.059,-41.702 -11.581,-67.945 0.106,-3.346 -4.037,-4.887 -6.215,-2.337 z m -70.388,-8.5 c 0,0 46.907,-13.28 83.669,-49.563 4.249,-4.197 11.527,1.646 11.049,7.596 -0.903,12.378 -33.627,47.864 -60.613,67.838 -27.784,20.559 -36.814,53.123 -39.417,66.245 -0.691,3.346 -3.613,5.737 -7.013,5.737 h -12.112 c -4.515,0 -7.915,-4.144 -7.012,-8.606 l 7.012,-33.839 -1.54,-3.613 c -2.019,-4.781 -0.85,-10.252 3.028,-13.759 l 10.093,-9.084 4.994,-19.868 c 1.009,-4.143 3.931,-7.543 7.862,-9.084 z m 288.936,-305.935 29.749,-18.168 -8.234,-33.043 -31.396,-28.049 29.749,19.815 -6.587,-29.696 -14.875,-19.071 21.462,17.424 15.778,50.998 12.271,-16.308 8.234,-23.109 v 27.571 l -18.168,20.293 4.94,16.521 -24.755,19.815 z m -34.689,1.646 -28.102,-16.521 8.234,-33.042 31.395,-28.102 -29.749,19.814 6.588,-29.748 14.874,-19.072 -21.462,17.425 -15.777,50.998 -12.271,-16.309 -8.288,-23.108 v 27.624 l 18.168,20.293 -4.94,16.521 24.755,19.815 z m 70.122,21.993 -4.25,-12.749 c -0.797,-2.284 -3.346,-3.453 -5.525,-2.444 l -10.73,4.781 c 0,0 -28.102,-9.934 -62.739,4.941 -21.461,-14.875 -34.689,-6.853 -34.689,-6.853 0,0 -1.647,33.308 33.042,25.021 1.594,-0.372 -19.389,117.242 -19.389,117.242 l 23.905,-11.527 10.359,-54.505 -1.753,-33.042 34.689,0.266 35.646,-26.562 c 1.381,-1.062 1.965,-2.922 1.434,-4.569 z m -108.477,-5.79 c 0,0 16.946,1.434 16.893,8.075 z m 39.258,4.037 c 0,0 15.565,-6.64 15.565,-1.912 0,8.393 -15.565,1.912 -15.565,1.912 z m 27.571,65.129 c 2.178,-0.531 4.249,1.275 3.931,3.506 l -6.694,51.477 -2.603,20.027 -16.043,123.245 c -0.266,2.125 -2.072,3.719 -4.25,3.719 h -23.268 c -2.656,0 -4.675,-2.337 -4.25,-4.94 l 14.822,-106.034 -46.483,14.609 -32.671,94.665 c -0.584,1.806 -2.231,3.028 -4.09,3.028 l -23.852,7.012 c -2.975,0 -5.047,-2.921 -4.038,-5.737 l 29.749,-84.837 6.747,-19.284 22.418,-63.907 c 0.69,-1.966 1.965,-3.612 3.665,-4.834 l 19.603,-6.534 c 1.806,-1.275 4.196,0.478 3.506,2.603 l -17.637,58.435 46.27,-15.087 11.581,-58.223 c 0.584,-3.081 2.869,-5.578 5.95,-6.322 z m -249.094,96.365 c -0.957,0.638 -0.16,2.125 0.903,1.7 l 13.281,-5.099 -37.452,92.859 c -1.753,4.409 2.072,8.977 6.64,8.021 20.878,-4.25 67.785,-20.08 94.081,-77.719 40.799,-89.193 -77.453,-19.762 -77.453,-19.762 z m 52.804,19.762 c -3.931,21.143 -20.346,30.121 -29.377,33.521 -2.497,0.903 -4.994,-1.381 -4.197,-3.931 l 14.184,-45.845 c 0.372,-1.222 1.434,-2.125 2.709,-2.232 5.578,-0.531 20.187,-0.318 16.681,18.487 z"
     inkscape:export-filename="logo.svg"
     inkscape:export-xdpi="96"
     inkscape:export-ydpi="96" /><circle
     style="display:inline;fill:#302322;fill-opacity:1;stroke:none;stroke-width:35.8042;stroke-linejoin:round;paint-order:stroke fill markers"
     id="path24"
     cx="325.80246"
     cy="378.23041"
     r="187.71419" /><path
     id="path13-9"
     style="display:inline;fill:none;fill-opacity:1;fill-rule:nonzero;stroke:#302322;stroke-width:100;stroke-linecap:round;stroke-linejoin:round;stroke-dasharray:none;stroke-opacity:1;filter:url(#filter0_dddddi_18_31-1)"
     d="m 163.39532,512.81165 c -32.458,-36.973 -52.167,-85.475 -52.167,-138.545 0,-115.967 94.028,-209.995 209.995,-209.995 13.812,0 27.359,1.328 40.427,3.878 m 142.37,102.634 c 17.318,30.545 27.199,65.872 27.199,103.483 0,61.411 -26.349,116.605 -68.316,155.013 m -333.613,-93.921 c 0,0 27.783,-33.839 54.823,-33.839 21.887,0 37.93,15.458 37.93,15.458 l -8.447,21.781 -28.102,-11.262 -21.993,10.89 v -8.128 z m 235.76,-81.756 -35.221,98.808 c -3.134,11.634 -38.939,18.7 -49.776,16.522 23.48,-25.978 60.029,-74.479 24.809,-100.19 0.265,-0.691 0.796,-1.275 1.434,-1.594 l 54.292,-17.159 c 2.496,-1.328 5.312,0.956 4.462,3.613 z m 34.689,140.51 c 4.888,-3.028 11.05,1.009 10.253,6.693 l -2.019,13.919 c 0,3.4 2.763,6.162 6.163,6.162 h 24.224 c 1.912,0 3.187,1.859 2.603,3.665 -8.394,25.075 -10.094,50.096 -7.756,75.17 0.159,1.646 -1.116,3.028 -2.763,3.028 h -29.483 c -1.275,0 -2.39,-0.85 -2.709,-2.125 -8.075,-34.212 -7.703,-69.167 0.265,-104.759 0.107,-0.744 0.585,-1.381 1.222,-1.753 z m -93.443,-18.274 c 7.437,-0.372 14.343,-3.719 18.487,-6.269 1.328,-0.797 2.921,0.531 2.39,1.966 l -16.733,48.82 c -0.319,3.4 2.178,6.428 5.577,6.693 l 32.618,-6.799 c 1.912,0.159 3.028,2.124 2.231,3.878 -10.678,24.171 -22.312,55.991 -22.312,81.172 0,1.646 -1.381,2.921 -3.028,2.762 l -29.43,-1.434 c -1.275,-0.107 -2.284,-1.116 -2.497,-2.338 -5.312,-37.611 -1.434,-87.493 11.209,-126.805 0.319,-0.69 0.85,-1.274 1.488,-1.646 z m -47.492,59.285 c -7.544,9.456 -20.399,21.09 -30.44,26.19 -0.531,0.637 -0.85,1.434 -0.85,2.284 -0.106,21.94 13.759,30.918 26.296,48.448 0.85,1.169 2.338,1.7 3.772,1.328 l 16.468,-3.665 c 1.913,-0.478 3.028,-2.391 2.55,-4.303 -2.975,-11.369 -12.059,-41.702 -11.581,-67.945 0.106,-3.346 -4.037,-4.887 -6.215,-2.337 z m -70.388,-8.5 c 0,0 46.907,-13.28 83.669,-49.563 4.249,-4.197 11.527,1.646 11.049,7.596 -0.903,12.378 -33.627,47.864 -60.613,67.838 -27.784,20.559 -36.814,53.123 -39.417,66.245 -0.691,3.346 -3.613,5.737 -7.013,5.737 h -12.112 c -4.515,0 -7.915,-4.144 -7.012,-8.606 l 7.012,-33.839 -1.54,-3.613 c -2.019,-4.781 -0.85,-10.252 3.028,-13.759 l 10.093,-9.084 4.994,-19.868 c 1.009,-4.143 3.931,-7.543 7.862,-9.084 z m 288.936,-305.935 29.749,-18.168 -8.234,-33.043 -31.396,-28.049 29.749,19.815 -6.587,-29.696 -14.875,-19.071 21.462,17.424 15.778,50.998 12.271,-16.308 8.234,-23.109 v 27.571 l -18.168,20.293 4.94,16.521 -24.755,19.815 z m -34.689,1.646 -28.102,-16.521 8.234,-33.042 31.395,-28.102 -29.749,19.814 6.588,-29.748 14.874,-19.072 -21.462,17.425 -15.777,50.998 -12.271,-16.309 -8.288,-23.108 v 27.624 l 18.168,20.293 -4.94,16.521 24.755,19.815 z m 70.122,21.993 -4.25,-12.749 c -0.797,-2.284 -3.346,-3.453 -5.525,-2.444 l -10.73,4.781 c 0,0 -28.102,-9.934 -62.739,4.941 -21.461,-14.875 -34.689,-6.853 -34.689,-6.853 0,0 -1.647,33.308 33.042,25.021 1.594,-0.372 -19.389,117.242 -19.389,117.242 l 23.905,-11.527 10.359,-54.505 -1.753,-33.042 34.689,0.266 35.646,-26.562 c 1.381,-1.062 1.965,-2.922 1.434,-4.569 z m -108.477,-5.79 c 0,0 16.946,1.434 16.893,8.075 z m 39.258,4.037 c 0,0 15.565,-6.64 15.565,-1.912 0,8.393 -15.565,1.912 -15.565,1.912 z m 27.571,65.129 c 2.178,-0.531 4.249,1.275 3.931,3.506 l -6.694,51.477 -2.603,20.027 -16.043,123.245 c -0.266,2.125 -2.072,3.719 -4.25,3.719 h -23.268 c -2.656,0 -4.675,-2.337 -4.25,-4.94 l 14.822,-106.034 -46.483,14.609 -32.671,94.665 c -0.584,1.806 -2.231,3.028 -4.09,3.028 l -23.852,7.012 c -2.975,0 -5.047,-2.921 -4.038,-5.737 l 29.749,-84.837 6.747,-19.284 22.418,-63.907 c 0.69,-1.966 1.965,-3.612 3.665,-4.834 l 19.603,-6.534 c 1.806,-1.275 4.196,0.478 3.506,2.603 l -17.637,58.435 46.27,-15.087 11.581,-58.223 c 0.584,-3.081 2.869,-5.578 5.95,-6.322 z m -249.094,96.365 c -0.957,0.638 -0.16,2.125 0.903,1.7 l 13.281,-5.099 -37.452,92.859 c -1.753,4.409 2.072,8.977 6.64,8.021 20.878,-4.25 67.785,-20.08 94.081,-77.719 40.799,-89.193 -77.453,-19.762 -77.453,-19.762 z m 52.804,19.762 c -3.931,21.143 -20.346,30.121 -29.377,33.521 -2.497,0.903 -4.994,-1.381 -4.197,-3.931 l 14.184,-45.845 c 0.372,-1.222 1.434,-2.125 2.709,-2.232 5.578,-0.531 20.187,-0.318 16.681,18.487 z"
     inkscape:label="path13-9"
     inkscape:export-filename="logo.svg"
     inkscape:export-xdpi="96"
     inkscape:export-ydpi="96" /><g
     filter="url(#filter0_dddddi_18_31)"
     id="g13"
     style="display:inline"
     transform="translate(-132.31824,-131.06996)"><path
       d="m 354.815,535.592 c -0.957,0.638 -0.16,2.125 0.903,1.7 l 13.281,-5.099 -37.452,92.859 c -1.753,4.409 2.072,8.977 6.64,8.021 20.878,-4.25 67.785,-20.08 94.081,-77.719 40.799,-89.193 -77.453,-19.762 -77.453,-19.762 z m 52.804,19.762 c -3.931,21.143 -20.346,30.121 -29.377,33.521 -2.497,0.903 -4.994,-1.381 -4.197,-3.931 l 14.184,-45.845 c 0.372,-1.222 1.434,-2.125 2.709,-2.232 5.578,-0.531 20.187,-0.318 16.681,18.487 z"
       stroke="#ffb4c7"
       stroke-width="5.4012"
       stroke-miterlimit="10"
       stroke-linecap="round"
       stroke-linejoin="round"
       id="path1" /><path
       d="m 603.909,439.227 c 2.178,-0.531 4.249,1.275 3.931,3.506 l -6.694,51.477 -2.603,20.027 -16.043,123.245 c -0.266,2.125 -2.072,3.719 -4.25,3.719 h -23.268 c -2.656,0 -4.675,-2.337 -4.25,-4.94 l 14.822,-106.034 -46.483,14.609 -32.671,94.665 c -0.584,1.806 -2.231,3.028 -4.09,3.028 l -23.852,7.012 c -2.975,0 -5.047,-2.921 -4.038,-5.737 l 29.749,-84.837 6.747,-19.284 22.418,-63.907 c 0.69,-1.966 1.965,-3.612 3.665,-4.834 l 19.603,-6.534 c 1.806,-1.275 4.196,0.478 3.506,2.603 l -17.637,58.435 46.27,-15.087 11.581,-58.223 c 0.584,-3.081 2.869,-5.578 5.95,-6.322 z"
       stroke="#ffb4c7"
       stroke-width="5.4012"
       stroke-miterlimit="10"
       stroke-linecap="round"
       stroke-linejoin="round"
       id="path2" /><path
       d="m 645.557,375.851 -4.25,-12.749 c -0.797,-2.284 -3.346,-3.453 -5.525,-2.444 l -10.73,4.781 c 0,0 -28.102,-9.934 -62.739,4.941 -21.461,-14.875 -34.689,-6.853 -34.689,-6.853 0,0 -1.647,33.308 33.042,25.021 1.594,-0.372 -19.389,117.242 -19.389,117.242 l 23.905,-11.527 10.359,-54.505 -1.753,-33.042 34.689,0.266 35.646,-26.562 c 1.381,-1.062 1.965,-2.922 1.434,-4.569 z m -108.477,-5.79 c 0,0 16.946,1.434 16.893,8.075 z m 39.258,4.037 c 0,0 15.565,-6.64 15.565,-1.912 0,8.393 -15.565,1.912 -15.565,1.912 z"
       stroke="#996fff"
       stroke-width="5.4012"
       stroke-miterlimit="10"
       stroke-linecap="round"
       stroke-linejoin="round"
       id="path3" /><path
       d="m 575.435,353.858 -28.102,-16.521 8.234,-33.042 31.395,-28.102 -29.749,19.814 6.588,-29.748 14.874,-19.072 -21.462,17.425 -15.777,50.998 -12.271,-16.309 -8.288,-23.108 v 27.624 l 18.168,20.293 -4.94,16.521 24.755,19.815 z"
       stroke="#ffb4c7"
       stroke-width="5.4012"
       stroke-miterlimit="10"
       stroke-linecap="round"
       stroke-linejoin="round"
       id="path4" /><path
       d="m 610.124,352.212 29.749,-18.168 -8.234,-33.043 -31.396,-28.049 29.749,19.815 -6.587,-29.696 L 608.53,244 l 21.462,17.424 15.778,50.998 12.271,-16.308 8.234,-23.109 v 27.571 l -18.168,20.293 4.94,16.521 -24.755,19.815 z"
       stroke="#ffb4c7"
       stroke-width="5.4012"
       stroke-miterlimit="10"
       stroke-linecap="round"
       stroke-linejoin="round"
       id="path5" /><path
       d="m 321.188,658.147 c 0,0 46.907,-13.28 83.669,-49.563 4.249,-4.197 11.527,1.646 11.049,7.596 -0.903,12.378 -33.627,47.864 -60.613,67.838 -27.784,20.559 -36.814,53.123 -39.417,66.245 -0.691,3.346 -3.613,5.737 -7.013,5.737 h -12.112 c -4.515,0 -7.915,-4.144 -7.012,-8.606 l 7.012,-33.839 -1.54,-3.613 c -2.019,-4.781 -0.85,-10.252 3.028,-13.759 l 10.093,-9.084 4.994,-19.868 c 1.009,-4.143 3.931,-7.543 7.862,-9.084 z"
       stroke="#996fff"
       stroke-width="5.4012"
       stroke-miterlimit="10"
       stroke-linecap="round"
       stroke-linejoin="round"
       id="path6" /><path
       d="m 391.576,666.647 c -7.544,9.456 -20.399,21.09 -30.44,26.19 -0.531,0.637 -0.85,1.434 -0.85,2.284 -0.106,21.94 13.759,30.918 26.296,48.448 0.85,1.169 2.338,1.7 3.772,1.328 l 16.468,-3.665 c 1.913,-0.478 3.028,-2.391 2.55,-4.303 -2.975,-11.369 -12.059,-41.702 -11.581,-67.945 0.106,-3.346 -4.037,-4.887 -6.215,-2.337 z"
       stroke="#996fff"
       stroke-width="5.4012"
       stroke-miterlimit="10"
       stroke-linecap="round"
       stroke-linejoin="round"
       id="path7" /><path
       d="m 439.068,607.362 c 7.437,-0.372 14.343,-3.719 18.487,-6.269 1.328,-0.797 2.921,0.531 2.39,1.966 l -16.733,48.82 c -0.319,3.4 2.178,6.428 5.577,6.693 l 32.618,-6.799 c 1.912,0.159 3.028,2.124 2.231,3.878 -10.678,24.171 -22.312,55.991 -22.312,81.172 0,1.646 -1.381,2.921 -3.028,2.762 l -29.43,-1.434 c -1.275,-0.107 -2.284,-1.116 -2.497,-2.338 -5.312,-37.611 -1.434,-87.493 11.209,-126.805 0.319,-0.69 0.85,-1.274 1.488,-1.646 z"
       stroke="#996fff"
       stroke-width="5.4012"
       stroke-miterlimit="10"
       stroke-linecap="round"
       stroke-linejoin="round"
       id="path8" /><path
       d="m 532.511,625.636 c 4.888,-3.028 11.05,1.009 10.253,6.693 l -2.019,13.919 c 0,3.4 2.763,6.162 6.163,6.162 h 24.224 c 1.912,0 3.187,1.859 2.603,3.665 -8.394,25.075 -10.094,50.096 -7.756,75.17 0.159,1.646 -1.116,3.028 -2.763,3.028 h -29.483 c -1.275,0 -2.39,-0.85 -2.709,-2.125 -8.075,-34.212 -7.703,-69.167 0.265,-104.759 0.107,-0.744 0.585,-1.381 1.222,-1.753 z"
       stroke="#996fff"
       stroke-width="5.4012"
       stroke-miterlimit="10"
       stroke-linecap="round"
       stroke-linejoin="round"
       id="path9" /><path
       d="m 497.822,485.126 -35.221,98.808 c -3.134,11.634 -38.939,18.7 -49.776,16.522 23.48,-25.978 60.029,-74.479 24.809,-100.19 0.265,-0.691 0.796,-1.275 1.434,-1.594 l 54.292,-17.159 c 2.496,-1.328 5.312,0.956 4.462,3.613 z"
       stroke="#996fff"
       stroke-width="5.4012"
       stroke-miterlimit="10"
       stroke-linecap="round"
       stroke-linejoin="round"
       id="path10" /><path
       d="m 262.062,566.882 c 0,0 27.783,-33.839 54.823,-33.839 21.887,0 37.93,15.458 37.93,15.458 l -8.447,21.781 -28.102,-11.262 -21.993,10.89 v -8.128 z"
       stroke="#996fff"
       stroke-width="5.4012"
       stroke-miterlimit="10"
       stroke-linecap="round"
       stroke-linejoin="round"
       id="path11" /><path
       d="m 636.792,402.307 c 17.318,30.545 27.199,65.872 27.199,103.483 0,61.411 -26.349,116.605 -68.316,155.013"
       stroke="#ff7533"
       stroke-width="5.4012"
       stroke-miterlimit="10"
       stroke-linecap="round"
       stroke-linejoin="round"
       id="path12" /><path
       d="M 296.167,644.335 C 263.709,607.362 244,558.86 244,505.79 c 0,-115.967 94.028,-209.995 209.995,-209.995 13.812,0 27.359,1.328 40.427,3.878"
       stroke="#ff7533"
       stroke-width="5.4012"
       stroke-miterlimit="10"
       stroke-linecap="round"
       stroke-linejoin="round"
       id="path13" /></g><defs
     id="defs24"><filter
       id="filter0_dddddi_18_31"
       x="0.45344499"
       y="0.45339301"
       width="909.36798"
       height="999.09302"
       filterUnits="userSpaceOnUse"
       color-interpolation-filters="sRGB"><feFlood
         flood-opacity="0"
         result="BackgroundImageFix"
         id="feFlood13" /><feColorMatrix
         in="SourceAlpha"
         type="matrix"
         values="0 0 0 0 0 0 0 0 0 0 0 0 0 0 0 0 0 0 127 0"
         result="hardAlpha"
         id="feColorMatrix13" /><feOffset
         id="feOffset13" /><feGaussianBlur
         stdDeviation="5.73441"
         id="feGaussianBlur13" /><feColorMatrix
         type="matrix"
         values="0 0 0 0 0.772549 0 0 0 0 0.294118 0 0 0 0 0.0862745 0 0 0 1 0"
         id="feColorMatrix14" /><feBlend
         mode="normal"
         in2="BackgroundImageFix"
         result="effect1_dropShadow_18_31"
         id="feBlend14" /><feColorMatrix
         in="SourceAlpha"
         type="matrix"
         values="0 0 0 0 0 0 0 0 0 0 0 0 0 0 0 0 0 0 127 0"
         result="hardAlpha"
         id="feColorMatrix15" /><feOffset
         id="feOffset15" /><feGaussianBlur
         stdDeviation="20.0704"
         id="feGaussianBlur15" /><feColorMatrix
         type="matrix"
         values="0 0 0 0 0.772549 0 0 0 0 0.294118 0 0 0 0 0.0862745 0 0 0 1 0"
         id="feColorMatrix16" /><feBlend
         mode="normal"
         in2="effect1_dropShadow_18_31"
         result="effect2_dropShadow_18_31"
         id="feBlend16" /><feColorMatrix
         in="SourceAlpha"
         type="matrix"
         values="0 0 0 0 0 0 0 0 0 0 0 0 0 0 0 0 0 0 127 0"
         result="hardAlpha"
         id="feColorMatrix17" /><feOffset
         id="feOffset17" /><feGaussianBlur
         stdDeviation="40.1408"
         id="feGaussianBlur17" /><feColorMatrix
         type="matrix"
         values="0 0 0 0 0.772549 0 0 0 0 0.294118 0 0 0 0 0.0862745 0 0 0 1 0"
         id="feColorMatrix18" /><feBlend
         mode="normal"
         in2="effect2_dropShadow_18_31"
         result="effect3_dropShadow_18_31"
         id="feBlend18" /><feColorMatrix
         in="SourceAlpha"
         type="matrix"
         values="0 0 0 0 0 0 0 0 0 0 0 0 0 0 0 0 0 0 127 0"
         result="hardAlpha"
         id="feColorMatrix19" /><feOffset
         id="feOffset19" /><feGaussianBlur
         stdDeviation="0"
         id="feGaussianBlur19" /><feColorMatrix
         type="matrix"
         values="0 0 0 0 0.77254900000000004 0 0 0 0 0.29411799999999999 0 0 0 0 0.086274500000000004 0 0 0 1 0"
         id="feColorMatrix20" /><feBlend
         mode="normal"
         in2="effect3_dropShadow_18_31"
         result="effect4_dropShadow_18_31"
         id="feBlend20" /><feColorMatrix
         in="SourceAlpha"
         type="matrix"
         values="0 0 0 0 0 0 0 0 0 0 0 0 0 0 0 0 0 0 127 0"
         result="hardAlpha"
         id="feColorMatrix21" /><feOffset
         id="feOffset21" /><feGaussianBlur
         stdDeviation="18.243243243243242"
         id="feGaussianBlur21" /><feColorMatrix
         type="matrix"
         values="0 0 0 0 0.77254900000000004 0 0 0 0 0.29411799999999999 0 0 0 0 0.086274500000000004 0 0 0 1 0"
         id="feColorMatrix22" /><feBlend
         mode="normal"
         in2="effect4_dropShadow_18_31"
         result="effect5_dropShadow_18_31"
         id="feBlend22" /><feBlend
         mode="normal"
         in="SourceGraphic"
         in2="effect5_dropShadow_18_31"
         result="shape"
         id="feBlend23" /><feColorMatrix
         in="SourceAlpha"
         type="matrix"
         values="0 0 0 0 0 0 0 0 0 0 0 0 0 0 0 0 0 0 127 0"
         result="hardAlpha"
         id="feColorMatrix23" /><feOffset
         id="feOffset23" /><feGaussianBlur
         stdDeviation="2.8672"
         id="feGaussianBlur23" /><feComposite
         in2="hardAlpha"
         operator="arithmetic"
         k2="-1"
         k3="1"
         id="feComposite23"
         k1="0"
         k4="0" /><feColorMatrix
         type="matrix"
         values="0 0 0 0 1 0 0 0 0 1 0 0 0 0 1 0 0 0 1 0"
         id="feColorMatrix24" /><feBlend
         mode="normal"
         in2="shape"
         result="effect6_innerShadow_18_31"
         id="feBlend24" /></filter><filter
       id="filter0_dddddi_18_31-1"
       x="0.45344499"
       y="0.45339301"
       width="909.36798"
       height="999.09302"
       filterUnits="userSpaceOnUse"
       color-interpolation-filters="sRGB"><feBlend
         mode="normal"
         result="effect6_innerShadow_18_31"
         id="feBlend24-9" /></filter></defs></svg>
