<?xml version="1.0" encoding="UTF-8" standalone="no"?>
<!-- Created with Inkscape (http://www.inkscape.org/) -->

<svg
   width="277.62366mm"
   height="318.89273mm"
   viewBox="0 0 277.62366 318.89273"
   preserveAspectRatio="none slice"
   version="1.1"
   id="svg1"
   xml:space="preserve"
   xmlns="http://www.w3.org/2000/svg"
   xmlns:svg="http://www.w3.org/2000/svg"><defs
     id="defs1" /><g
     id="layer1"
     transform="translate(298.56959,1.0304219)"><g
       id="g30"
       transform="matrix(3.9829847,0,0,3.9829847,-371.3422,-832.96257)"><path
         d="m 29.260024,208.87154 c -6.044631,0 -10.98915,4.9424 -10.98915,10.98703 v 53.45201 c 0,6.04464 4.944522,10.98862 10.98915,10.98862 h 19.313734 c 0.596573,0.84806 1.265541,1.62709 2.062189,2.23664 2.087103,1.59698 4.668972,2.39946 7.330873,2.39945 2.661896,10e-6 5.242783,-0.80293 7.329281,-2.39945 0.796297,-0.60928 1.465412,-1.38864 2.06219,-2.23664 h 3.235128 c 1.863283,1.10901 3.966188,1.78169 6.186567,1.78168 2.661899,1e-5 5.242747,-0.80226 7.329283,-2.39891 2.156182,-1.64993 3.864211,-4.32619 3.864018,-7.55359 v -0.55889 -19.07565 c 0,-2.04459 -1.045412,-3.71931 -2.439205,-5.01202 v -31.62325 c 0,-6.04463 -4.941868,-10.98702 -10.986499,-10.98703 z"
         style="fill:#ffffff;fill-opacity:1;stroke-width:1.02612;stroke-linecap:square;stroke-linejoin:round;paint-order:markers stroke fill"
         id="path30" /></g><path
       d="m -254.59895,9.0449554 c -18.79856,0 -33.93305,15.1345146 -33.93305,33.9330346 V 255.4257 c 0,18.79857 15.13449,33.93304 33.93305,33.93304 h 82.02435 c 2.0992,4.37078 5.23389,8.12194 8.85365,10.89163 6.48227,4.95996 14.57327,7.5365 23.21846,7.53646 8.6452,4e-5 16.72987,-2.57646 23.21213,-7.53646 3.61987,-2.76981 6.75656,-6.52069 8.85577,-10.89163 h 20.130935 c 6.37282,4.65173 14.20645,7.08553 22.57356,7.08549 8.64558,4e-5 16.72974,-2.57609 23.21213,-7.53647 6.48239,-4.96042 11.54129,-12.99345 11.54074,-22.28696 v -2.22132 -75.81562 c 0,-7.09642 -3.93404,-13.13249 -9.69666,-16.20674 V 42.97799 c 0,-18.79852 -15.13449,-33.9330346 -33.93305,-33.9330346 z m 31.63164,75.3309146 h 116.72874 c 5.67237,0 10.238285,4.56593 10.238285,10.23829 0,5.67236 -4.565915,10.24037 -10.238285,10.24037 h -116.72874 c -5.67237,0 -10.2383,-4.56801 -10.2383,-10.24037 0,-5.67236 4.56593,-10.23829 10.2383,-10.23829 z m 0.53952,55.52237 h 115.6497 c 5.97126,0 10.777805,4.80866 10.777805,10.77992 0,5.97126 -4.806545,10.77781 -10.777805,10.77781 h -115.6497 c -5.97126,0 -10.77782,-4.80655 -10.77782,-10.77781 0,-5.97126 4.80656,-10.77992 10.77782,-10.77992 z m 172.504035,44.06386 c 2.86827,-0.29282 5.21188,2.05998 5.21188,4.61968 v 75.8177 2.22132 c 5.3e-4,8.88352 -9.41061,16.08463 -21.02033,16.08454 -11.60966,9e-5 -21.02291,-7.20102 -21.02242,-16.08454 1.6e-4,-8.88316 9.41325,-16.08459 21.02242,-16.08451 2.18782,0.004 4.36021,0.27202 6.44056,0.79033 v -35.05636 c 0,-1.91679 -1.75968,-3.72563 -3.901,-3.46054 l -52.340055,6.47639 c -2.14124,0.26509 -3.90311,1.5438 -3.90311,3.46051 0,22.72167 0.0527,32.50849 -0.0485,55.22102 -1e-4,4.45218 -2.36555,8.4788 -6.18554,11.3911 -3.80184,2.89848 -9.04398,4.69349 -14.83477,4.69345 -5.79076,4e-5 -11.03293,-1.79497 -14.83478,-4.69345 -3.82,-2.9123 -6.18545,-6.93892 -6.18554,-11.3911 1.8e-4,-8.88311 9.41116,-16.0845 21.02032,-16.0845 2.20509,0.004 4.39593,0.27487 6.49113,0.80085 v -66.04944 c 0,-2.55969 2.34361,-4.32681 5.21188,-4.61963 z m -171.424985,7.9706 h 41.93737 c 6.56905,0 11.85686,5.28782 11.85686,11.85687 0,6.56906 -5.28781,11.85688 -11.85686,11.85688 h -41.93737 c -6.56905,0 -11.85687,-5.28782 -11.85687,-11.85688 0,-6.56905 5.28782,-11.85687 11.85687,-11.85687 z"
       style="fill:#674d78;fill-opacity:1;stroke-width:12.9486;stroke-linecap:square;stroke-linejoin:round;paint-order:markers stroke fill"
       id="path31" /><rect
       style="display:inline;fill:#ffedaf;fill-opacity:1;stroke:none;stroke-width:0.895727;stroke-linecap:square;stroke-linejoin:round;stroke-dasharray:none;paint-order:stroke markers fill"
       id="rect31"
       width="4.1691351"
       height="4.1691351"
       x="-195.86578"
       y="258.60297" /><rect
       style="display:inline;fill:#ffedaf;fill-opacity:1;stroke:none;stroke-width:0.895727;stroke-linecap:square;stroke-linejoin:round;stroke-dasharray:none;paint-order:stroke markers fill"
       id="rect35"
       width="4.1691351"
       height="4.1691351"
       x="-264.22098"
       y="270.66644" /><rect
       style="display:inline;fill:#7fffca;fill-opacity:1;stroke:none;stroke-width:0.895727;stroke-linecap:square;stroke-linejoin:round;stroke-dasharray:none;paint-order:stroke markers fill"
       id="rect36"
       width="4.1691351"
       height="4.1691351"
       x="-244.17725"
       y="250.74655" /><rect
       style="display:inline;fill:#ffa67f;fill-opacity:1;stroke:none;stroke-width:0.895727;stroke-linecap:square;stroke-linejoin:round;stroke-dasharray:none;paint-order:stroke markers fill"
       id="rect37"
       width="4.1691351"
       height="4.1691351"
       x="-251.79016"
       y="242.68939" /><rect
       style="display:inline;fill:#ffa67f;fill-opacity:1;stroke:none;stroke-width:0.895727;stroke-linecap:square;stroke-linejoin:round;stroke-dasharray:none;paint-order:stroke markers fill"
       id="rect39"
       width="4.1691351"
       height="4.1691351"
       x="-268.22638"
       y="226.91525" /><rect
       style="display:inline;fill:#ff7fd0;fill-opacity:1;stroke:none;stroke-width:0.895727;stroke-linecap:square;stroke-linejoin:round;stroke-dasharray:none;paint-order:stroke markers fill"
       id="rect41"
       width="4.1691351"
       height="4.1691351"
       x="-232.31866"
       y="214.89713" /><rect
       style="display:inline;fill:#ffedaf;fill-opacity:1;stroke:none;stroke-width:0.895727;stroke-linecap:square;stroke-linejoin:round;stroke-dasharray:none;paint-order:stroke markers fill"
       id="rect43"
       width="4.1691351"
       height="4.1691351"
       x="-51.673763"
       y="134.43343" /><rect
       style="display:inline;fill:#ffa67f;fill-opacity:1;stroke:none;stroke-width:0.895727;stroke-linecap:square;stroke-linejoin:round;stroke-dasharray:none;paint-order:stroke markers fill"
       id="rect44"
       width="4.1691351"
       height="4.1691351"
       x="-69.21109"
       y="26.193752" /><rect
       style="display:inline;fill:#ffedaf;fill-opacity:1;stroke:none;stroke-width:0.895727;stroke-linecap:square;stroke-linejoin:round;stroke-dasharray:none;paint-order:stroke markers fill"
       id="rect45"
       width="4.1691351"
       height="4.1691351"
       x="-93.023621"
       y="13.758331" /><rect
       style="display:inline;fill:#ffedaf;fill-opacity:1;stroke:none;stroke-width:1.57563;stroke-linecap:square;stroke-linejoin:round;stroke-dasharray:none;paint-order:stroke markers fill"
       id="rect46"
       width="4.1691351"
       height="12.900385"
       x="-92.759033"
       y="41.539585" /><rect
       style="display:inline;fill:#ffedaf;fill-opacity:1;stroke:none;stroke-width:1.52639;stroke-linecap:square;stroke-linejoin:round;stroke-dasharray:none;paint-order:stroke markers fill"
       id="rect47"
       width="12.106635"
       height="4.1691351"
       x="-96.727783"
       y="46.037498" /><path
       d="m -102.24423,289.35857 v -4.42041 h -11.27838 v 11.27838 h 0.48421 c 1.80077,-2.0432 3.38984,-4.33018 4.60385,-6.85797 z"
       style="display:inline;fill:#ffedaf;stroke-width:2.42316;stroke-linecap:square;stroke-linejoin:round;paint-order:stroke markers fill"
       id="path49" /><g
       id="g50"
       transform="translate(-520.85485)"><path
         d="m 397.66255,138.54296 v 1.35548 h 4.16925 v -1.35548 z"
         style="display:inline;fill:#7fffca;stroke-width:0.895727;stroke-linecap:square;stroke-linejoin:round;paint-order:stroke markers fill"
         id="path50" /></g></g></svg>
