<?xml version="1.0" encoding="UTF-8" standalone="no"?>
<svg
   id="Layer_1"
   data-name="Layer 1"
   fill="#ffb04d"
   viewBox="0 0 305.52 116.22"
   version="1.1"
   sodipodi:docname="logo.svg"
   width="305.51999"
   height="116.22"
   inkscape:export-filename="logo.svg"
   inkscape:export-xdpi="96"
   inkscape:export-ydpi="96"
   inkscape:version="1.3.2 (091e20e, 2023-11-25, custom)"
   xmlns:inkscape="http://www.inkscape.org/namespaces/inkscape"
   xmlns:sodipodi="http://sodipodi.sourceforge.net/DTD/sodipodi-0.dtd"
   xmlns="http://www.w3.org/2000/svg"
   xmlns:svg="http://www.w3.org/2000/svg">
  <defs
     id="defs6" />
  <sodipodi:namedview
     id="namedview6"
     pagecolor="#ffffff"
     bordercolor="#000000"
     borderopacity="0.25"
     inkscape:showpageshadow="2"
     inkscape:pageopacity="0.0"
     inkscape:pagecheckerboard="true"
     inkscape:deskcolor="#d1d1d1"
     inkscape:zoom="2"
     inkscape:cx="151"
     inkscape:cy="28.75"
     inkscape:window-width="1920"
     inkscape:window-height="1137"
     inkscape:window-x="1912"
     inkscape:window-y="-8"
     inkscape:window-maximized="1"
     inkscape:current-layer="Layer_1" />
  <rect
     style="font-variation-settings:normal;display:inline;opacity:1;fill:#ffffff;fill-opacity:1;stroke:#ffffff;stroke-width:5.73193;stroke-linecap:butt;stroke-linejoin:round;stroke-miterlimit:4;stroke-dasharray:none;stroke-dashoffset:0;stroke-opacity:1;paint-order:stroke fill markers"
     id="rect6"
     width="26.699055"
     height="24.055319"
     x="41.643433"
     y="67.795448" />
  <path
     id="path6-6-5"
     style="font-variation-settings:normal;display:inline;fill:#ffb04d;fill-opacity:1;stroke:#ffffff;stroke-width:20;stroke-linecap:butt;stroke-linejoin:round;stroke-miterlimit:4;stroke-dasharray:none;stroke-dashoffset:0;stroke-opacity:1;paint-order:stroke fill markers;stop-color:#000000;stop-opacity:1"
     d="m 277.91798,45.467129 v 2.080364 h -3.70565 v 8.892112 h -2.40542 v -8.863218 h -3.74899 v -2.109258 z m 11.55758,10.972476 v -3.423932 c 0,-2.96163 0.13724,-4.861407 0.23115,-5.879919 h -0.0939 l -3.24334,9.260511 h -2.01535 l -2.96163,-9.260511 h -0.0939 c 0.0939,1.018512 0.14447,2.773819 0.14447,6.11107 v 3.192781 h -2.16705 V 45.467129 h 3.66231 l 2.59323,7.642449 2.7666,-7.642449 h 3.42393 V 56.439605 Z M 139.4004,37.593528 a 8.0036234,8.0036234 0 0 0 8.12642,-8.126422 c 0,-4.290751 -3.24335,-8.47315 -9.28218,-8.47315 -4.76028,0 -8.58873,3.828448 -8.58873,7.656896 0,4.767501 2.78827,8.942676 9.74449,8.942676 M 64.18223,92.159748 H 32.557802 a 7.9458355,7.9458355 0 0 1 -2.0298,-0.223928 L 30.39798,91.8997 a 2.4270916,2.4270916 0 0 1 -1.748084,-2.304292 2.7954894,2.7954894 0 0 1 0.03612,-0.325057 c 0.231152,-1.488038 1.372463,-4.110164 1.964789,-5.554861 0.982394,-2.325963 4.55802,-10.755772 8.090305,-19.091676 v 0 c 3.525061,-8.32868 7.014006,-16.556232 7.837483,-18.513797 0.722349,-1.776977 1.047406,-2.448762 1.813095,-2.405421 0.332281,0 0.563432,0.274493 0.823478,0.758466 0.260045,0.483974 0.491197,1.011289 0.845148,1.776978 l 0.80903,1.791425 1.979236,4.384656 c 1.502485,3.994589 14.63478,33.480862 15.24155,36.890347 0.33228,2.065918 -1.19187,2.889395 -3.95847,2.889395 m 88.95002,3.814001 h -2.8894 c -4.05959,0 -4.6447,-0.462303 -4.6447,-5.569308 V 61.040967 c 0,-8.357575 1.27856,-11.138617 1.27856,-12.417174 0,-0.816254 -2.08759,-2.441539 -2.78104,-2.441539 -0.69346,0 -4.87586,2.318739 -7.31017,3.012194 a 124.17896,124.17896 0 0 1 -15.66774,2.889395 c -0.46231,0 -0.72235,0.80903 -0.72235,1.509709 0,1.394133 0.23115,1.856436 1.16298,1.856436 0.93183,0 2.78104,-0.346728 4.76028,-0.346728 1.97923,0 2.66546,1.856437 2.66546,4.99143 v 29.941353 c 0,5.107005 -0.57788,5.916035 -4.41355,5.916035 h -4.99143 c -3.94402,0 -4.29075,-0.577879 -4.29075,-6.732289 V 36.89285 c 0,-9.166605 1.74086,-14.743136 1.74086,-15.891671 0,-0.816254 -1.39413,-1.856436 -2.16704,-1.856436 -1.04741,0 -4.29075,2.557114 -7.07902,3.611744 a 105.81686,105.81686 0 0 1 -16.71515,4.175175 c -0.93183,0.115576 -1.16298,0.577879 -1.16298,1.625284 0,1.047406 0.23115,1.740861 0.92461,1.740861 1.27855,0 2.88939,-0.346728 4.99143,-0.346728 2.43431,0 3.12776,2.31874 3.12776,6.385563 v 53.03484 c 0,6.031611 -0.57787,6.616714 -4.76027,6.616714 H 93.49514 A 16.46955,16.46955 0 0 0 92.09378,92.947108 C 91.26308,91.365164 90.11454,89.190895 88.81432,86.13536 L 59.58087,18.097338 c -0.65012,-1.560274 -1.32913,-2.846054 -3.055539,-2.846054 a 3.9223533,3.9223533 0 0 0 -3.727319,2.419868 L 19.923924,89.754327 a 37.612696,37.612696 0 0 1 -2.282622,4.153505 c -0.722349,1.162981 -1.141311,1.870883 -1.141311,2.463209 0,2.672689 2.080364,2.983299 3.611743,2.983299 0.772913,0 2.723255,-0.065 5.432062,-0.16614 6.501139,-0.2456 17.336369,-0.64289 27.44925,-0.64289 9.990084,0 20.319664,0.32506 27.868214,0.55621 4.37743,0.13725 7.85915,0.2456 9.93952,0.25282 h 0.18781 0.52009 c 2.36208,-0.0795 8.02529,-0.44786 15.5016,-0.44786 4.71694,0 9.39053,0.16615 12.46052,0.28894 0.41896,0 0.91738,0.0433 1.51693,0.0578 5.34538,0.28172 7.83748,-0.34672 16.42621,-0.34672 7.89527,0 14.28083,0.4623 15.78332,0.4623 0.72234,0 0.9246,-0.23115 0.9246,-1.50971 0,-1.61806 -0.46953,-1.849212 -1.0474,-1.849212 m 92.29449,-21.64879 c 0,-1.162981 -0.57788,-1.509709 -1.27856,-1.509709 -9.05103,0 -13.349,3.358922 -13.349,11.947648 0,6.385562 1.97201,9.390532 6.38556,9.390532 5.22258,0 8.242,-4.290751 8.242,-9.166604 z M 269.15589,97.8013 a 34.672737,34.672737 0 0 1 -11.72372,2.44154 c -5.10701,0 -9.51333,-2.67269 -10.56074,-6.385561 -0.23115,-0.722349 -0.4623,-1.509709 -0.9246,-1.509709 -0.57788,0 -1.04741,0.577879 -1.50971,1.162982 -4.0596,4.875858 -8.58873,6.732288 -14.85872,6.732288 -8.00362,0 -16.24562,-5.338155 -16.24562,-14.273608 0,-11.023041 6.14719,-15.321016 30.75761,-16.476774 0.92461,0 1.27856,-0.577879 1.27856,-2.087588 0,-8.668184 -0.23115,-14.858712 -7.22349,-14.858712 -4.40633,0 -5.77879,4.182399 -6.61671,7.779695 -0.92461,4.529127 -3.24335,7.425745 -7.6569,7.425745 -5.45373,0 -7.7797,-2.788266 -7.7797,-8.010847 0,-5.338157 6.38557,-11.138617 24.02532,-11.138617 15.32102,0 21.4682,8.704302 21.4682,17.870907 0,5.107005 -0.4623,16.715148 -0.4623,19.611766 0,6.847866 1.74086,8.935453 7.42575,8.935453 0.80903,0 1.39413,0.462304 1.39413,1.047406 0,1.032964 -0.23115,1.502484 -0.81626,1.733634 M 189.8709,65.093343 c 0,-6.147188 -3.71287,-10.329586 -9.63613,-10.329586 -6.26277,0 -9.74449,6.732289 -9.74449,19.033887 0,13.46458 4.0596,19.503415 10.32959,19.503415 3.36614,0 5.33816,-0.577879 7.66412,-3.366145 1.04018,-1.278557 1.39413,-3.134993 1.39413,-5.916036 V 65.093343 Z m 24.01809,32.729617 a 31.407721,31.407721 0 0 1 -12.27993,2.44154 c -4.52912,0 -8.24199,-2.44154 -9.39053,-6.73229 -0.23115,-0.80903 -0.4623,-1.74086 -0.92461,-1.74086 -0.4623,0 -0.80903,0.462303 -1.16298,0.80903 -3.94402,4.6447 -9.39053,7.6569 -15.55216,7.6569 -13.46458,0 -22.05331,-8.819881 -22.05331,-24.718775 0,-17.524179 10.32959,-26.921936 23.79417,-26.921936 a 15.667743,15.667743 0 0 1 11.49256,5.338157 1.7697543,1.7697543 0 0 0 1.39414,0.816254 c 0.57788,0 0.72235,-0.722349 0.72235,-1.278557 V 37.239578 c 0,-4.0596 -0.72235,-7.541321 -3.25057,-7.541321 -2.44154,0 -5.33816,0.577879 -6.38557,0.577879 -0.57787,0 -0.80903,-0.346727 -0.80903,-1.625284 0,-1.047406 0.23116,-1.394133 0.93183,-1.509709 5.91604,-1.509709 14.38919,-3.712872 17.98649,-5.222581 1.85643,-0.80903 6.03161,-3.366145 6.73229,-3.366145 0.70067,0 2.32596,1.394133 2.32596,2.087588 0,1.394133 -1.27856,5.338157 -1.27856,15.20544 v 50.947252 c 0,6.031611 1.74086,8.357574 7.42575,8.357574 0.72234,0 1.04018,0.346728 1.04018,0.816254 0,1.040185 -0.23115,1.625285 -0.72235,1.856435 m 66.55721,1.50971 c -6.96345,0 -9.74449,-4.175175 -9.74449,-8.935453 0,-3.828448 3.82845,-7.656896 8.58873,-7.656896 6.03161,0 9.28218,4.175175 9.28218,8.47315 a 8.0036234,8.0036234 0 0 1 -8.12642,8.119199" />
</svg>
